HIERARCHY
ROOT Hips
{
	OFFSET 0.000000 0.000000 0.000000
	CHANNELS 6 Xposition Yposition Zposition Xrotation Yrotation Zrotation
	JOINT LeftUpLeg_virtual
	{
		OFFSET 0.000000 0.000000 0.000000
		CHANNELS 3 Xrotation Yrotation Zrotation
		JOINT LeftUpLeg
		{
			OFFSET 10.205400 -3.823500 0.155100
			CHANNELS 3 Xrotation Yrotation Zrotation
			JOINT LeftLeg
			{
				OFFSET 0.708757 -12.982077 0.567790
				CHANNELS 3 Xrotation Yrotation Zrotation
				JOINT LeftFoot
				{
					OFFSET -0.708756 -10.717838 -2.184338
					CHANNELS 3 Xrotation Yrotation Zrotation
					JOINT LeftToeBase
					{
						OFFSET 0.108149 -7.191104 7.560241
						CHANNELS 3 Xrotation Yrotation Zrotation
						JOINT LeftToe_End
						{
							OFFSET 0.070230 0.081724 4.490308
							CHANNELS 3 Xrotation Yrotation Zrotation
							End Site
							{
								OFFSET 0 0 0
							}
						}
					}
				}
			}
		}
	}
	JOINT RightUpLeg_virtual
	{
		OFFSET 0.000000 0.000000 0.000000
		CHANNELS 3 Xrotation Yrotation Zrotation
		JOINT RightUpLeg
		{
			OFFSET -10.205400 -3.823500 0.005500
			CHANNELS 3 Xrotation Yrotation Zrotation
			JOINT RightLeg
			{
				OFFSET -0.708756 -12.982134 0.610632
				CHANNELS 3 Xrotation Yrotation Zrotation
				JOINT RightFoot
				{
					OFFSET 0.708754 -10.717769 -1.945823
					CHANNELS 3 Xrotation Yrotation Zrotation
					JOINT RightToeBase
					{
						OFFSET -0.108140 -7.191069 7.372968
						CHANNELS 3 Xrotation Yrotation Zrotation
						JOINT RightToe_End
						{
							OFFSET -0.070227 0.081735 4.479403
							CHANNELS 3 Xrotation Yrotation Zrotation
							End Site
							{
								OFFSET 0 0 0
							}
						}
					}
				}
			}
		}
	}
	JOINT Spine_virtual
	{
		OFFSET 0.000000 0.000000 0.000000
		CHANNELS 3 Xrotation Yrotation Zrotation
		JOINT Spine
		{
			OFFSET 0.000000 6.876099 0.125700
			CHANNELS 3 Xrotation Yrotation Zrotation
			JOINT Spine1
			{
				OFFSET 0.000000 5.730043 0.104720
				CHANNELS 3 Xrotation Yrotation Zrotation
				JOINT Spine1_split
				{
					OFFSET 0.000000 5.730043 0.104720
					CHANNELS 3 Xrotation Yrotation Zrotation
					JOINT Spine2
					{
						OFFSET 0.000000 5.730043 0.104720
						CHANNELS 3 Xrotation Yrotation Zrotation
						JOINT Neck_virtual
						{
							OFFSET 0.000000 0.000000 0.000000
							CHANNELS 3 Xrotation Yrotation Zrotation
							JOINT Neck
							{
								OFFSET 0.000000 10.314075 0.188496
								CHANNELS 3 Xrotation Yrotation Zrotation
								JOINT Head
								{
									OFFSET 0.000000 7.643700 -2.377400
									CHANNELS 3 Xrotation Yrotation Zrotation
									JOINT HeadTop_End
									{
										OFFSET 0.000000 43.788605 -13.619600
										CHANNELS 3 Xrotation Yrotation Zrotation
										End Site
										{
											OFFSET 0 0 0
										}
									}
								}
							}
						}
						JOINT LeftShoulder_virtual
						{
							OFFSET 0.000000 0.000000 0.000000
							CHANNELS 3 Xrotation Yrotation Zrotation
							JOINT LeftShoulder
							{
								OFFSET 2.196100 4.412489 0.087492
								CHANNELS 3 Xrotation Yrotation Zrotation
								JOINT LeftShoulder_split
								{
									OFFSET 2.196100 4.412489 0.087492
									CHANNELS 3 Xrotation Yrotation Zrotation
									JOINT LeftArm
									{
										OFFSET 8.771219 -2.981674 -0.026999
										CHANNELS 3 Xrotation Yrotation Zrotation
										JOINT LeftForeArm
										{
											OFFSET 8.512804 0.000000 -0.000000
											CHANNELS 3 Xrotation Yrotation Zrotation
											JOINT LeftHand
											{
												OFFSET 18.484802 0.000000 -0.000000
												CHANNELS 3 Xrotation Yrotation Zrotation
												End Site
												{
													OFFSET 0 0 0
												}
											}
										}
									}
								}
							}
						}
						JOINT RightShoulder_virtual
						{
							OFFSET 0.000000 0.000000 0.000000
							CHANNELS 3 Xrotation Yrotation Zrotation
							JOINT RightShoulder
							{
								OFFSET -2.196100 4.412496 0.070690
								CHANNELS 3 Xrotation Yrotation Zrotation
								JOINT RightShoulder_split
								{
									OFFSET -2.196100 4.412496 0.070690
									CHANNELS 3 Xrotation Yrotation Zrotation
									JOINT RightArm
									{
										OFFSET -8.771282 -2.981682 -0.094208
										CHANNELS 3 Xrotation Yrotation Zrotation
										JOINT RightForeArm
										{
											OFFSET -8.494598 0.000000 0.000000
											CHANNELS 3 Xrotation Yrotation Zrotation
											JOINT RightHand
											{
												OFFSET -18.483803 0.000000 0.000001
												CHANNELS 3 Xrotation Yrotation Zrotation
												End Site
												{
													OFFSET 0 0 0
												}
											}
										}
									}
								}
							}
						}
					}
				}
			}
		}
	}
}
MOTION
Frames: 4
Frame Time: 0.03333333
0.524518 33.051224 -3.371796 0.000000 0.000000 0.000000 3.223036 3.738949 0.507968 -19.744929 16.460957 13.735399 27.599973 -1.435040 2.386345 -12.041653 12.549557 -14.545912 4.384015 -4.492357 3.243184 0.000000 0.000000 0.000000 3.833066 3.862147 0.599830 -8.032661 -6.715624 -10.138779 20.885117 0.912734 0.675038 -19.524060 -9.393721 21.102873 8.877353 6.371428 -13.286428 0.000000 0.000000 0.000000 1.730097 9.192275 0.271288 1.855180 -2.672883 -1.206782 3.641918 2.424513 2.227649 0.160355 -0.565613 0.087111 0.000000 0.000000 0.000000 2.539829 4.212414 2.679117 -10.677354 6.222436 5.468370 -0.678237 -12.666774 8.986500 0.000000 0.000000 0.000000 0.755295 2.759636 2.007709 -1.409101 -3.503902 0.355228 0.546349 -0.731087 -1.470493 0.817006 28.098534 -76.532693 5.392210 -36.031717 0.004113 0.000000 0.000000 0.000000 2.095426 2.775366 2.546209 -1.147449 -13.449843 -1.341184 -2.899817 0.874810 -2.627746 -5.581373 -1.245409 75.089536 2.200848 15.106302 -3.962452 0.000000 0.000000 0.000000 
0.684347 33.038490 -3.229656 0.000000 0.000000 0.000000 3.266985 3.347469 0.506540 -20.028536 16.692684 13.789390 27.832403 -1.620200 2.343060 -12.144086 12.387141 -14.598606 4.191120 -4.502041 3.555491 0.000000 0.000000 0.000000 3.843256 3.919353 0.577666 -7.971130 -6.683405 -10.369979 21.094824 0.792201 0.725442 -19.772645 -9.556435 20.459845 9.701092 6.301609 -13.220927 0.000000 0.000000 0.000000 1.732155 8.868359 0.056963 1.881271 -2.767156 -1.055204 3.712832 2.344592 2.215165 0.154116 -0.637979 0.091773 0.000000 0.000000 0.000000 2.622696 4.137899 2.703688 -10.590009 6.393707 5.370749 -0.982219 -12.494664 9.157667 0.000000 0.000000 0.000000 0.721031 2.675879 2.000848 -1.344508 -3.272474 0.032439 0.603554 -1.003319 -1.084734 0.866228 27.826162 -76.458900 5.424701 -35.870647 -0.113017 0.000000 0.000000 0.000000 2.117139 2.684816 2.571564 -0.993058 -13.614556 -1.318215 -2.626867 1.936591 -2.313617 -4.298818 -0.777042 75.200717 2.242147 14.770971 -3.944238 0.000000 0.000000 0.000000 
0.915110 33.015278 -3.108814 0.000000 0.000000 0.000000 3.399239 3.010643 0.456401 -20.626203 16.747098 13.791768 28.549460 -1.958853 2.447314 -12.328783 11.982958 -14.794482 4.071306 -4.460047 3.692250 0.000000 0.000000 0.000000 3.864946 4.073643 0.511860 -8.105236 -6.736301 -10.722664 21.041467 0.754419 0.707923 -19.562020 -9.958682 20.200969 9.842270 6.353313 -13.148268 0.000000 0.000000 0.000000 1.879955 8.502389 -0.204168 1.985257 -2.950983 -0.843563 3.785600 2.158251 2.197833 0.159075 -0.729011 0.077796 0.000000 0.000000 0.000000 2.760622 3.949909 2.720149 -10.790133 6.488680 5.352925 -1.655279 -11.568220 9.220671 0.000000 0.000000 0.000000 0.725392 2.483074 1.994540 -1.267415 -2.713733 -0.251203 0.416776 -1.203096 -0.764761 1.588999 27.279031 -76.224672 4.975946 -36.340848 -0.473946 0.000000 0.000000 0.000000 2.159101 2.473343 2.587930 -0.792506 -14.006903 -1.378662 -2.620486 3.280750 -2.344220 -2.469543 0.373954 75.523567 2.347170 15.024242 -3.884331 0.000000 0.000000 0.000000 
1.205123 32.974205 -3.050173 0.000000 0.000000 0.000000 3.603922 2.723736 0.373025 -21.396817 16.703836 13.722197 29.521546 -2.295210 2.640077 -12.650519 11.503426 -14.911333 3.974467 -4.363476 3.655878 0.000000 0.000000 0.000000 3.926814 4.220021 0.411461 -8.466089 -6.770831 -11.169608 20.921575 0.865280 0.720719 -18.496289 -10.354421 20.587353 9.052257 6.497118 -13.043517 0.000000 0.000000 0.000000 2.154284 8.130632 -0.466918 2.151870 -3.161952 -0.602337 3.859780 1.897487 2.165120 0.159682 -0.759302 0.064124 0.000000 0.000000 0.000000 2.941007 3.678492 2.700607 -11.232699 6.448901 5.435461 -2.528632 -9.931708 9.239022 0.000000 0.000000 0.000000 0.771335 2.216993 1.952962 -1.184361 -1.935339 -0.490032 0.110168 -1.376538 -0.592968 2.952288 26.460978 -75.868198 4.110331 -37.500170 -1.053559 0.000000 0.000000 0.000000 2.229016 2.190921 2.568599 -0.553194 -14.630957 -1.513335 -2.666479 4.267727 -2.650457 -0.633264 1.837941 75.794527 2.430050 15.779069 -3.735511 0.000000 0.000000 0.000000 
